@startuml listarProgramas

skinparam linetype polyline

state listarProgramas as "listarProgramas()" {

    state " " as MostrandoLista
    state " " as FiltrandoLista

    [*] -[#green]-> MostrandoLista 
    note on link
    <b>Administrador</b> solicita listar programas
    end note    
    
    MostrandoLista -[#green]-> FiltrandoLista
    note on link
    <b>Sistema</b> presenta lista de programas
    • Código, nombre, descripción
    • Campo de búsqueda
    • Botones: Crear nuevo, Borrar, Editar (por fila)
    end note
    
    FiltrandoLista -[#green]-> FiltrandoLista
    note on link
    <b>Administrador</b> solicita filtrar lista
    <b>Sistema</b> presenta lista filtrada
    end note
    
    FiltrandoLista -[#green]-> [*]
    note on link
    <b>Administrador</b> solicita una de las opciones
    end note
}

listarProgramas -[#green]-> EDITANDO_PROGRAMA
note on link
editarPrograma()
end note

listarProgramas -[#green]-> EDITANDO_PROGRAMA
note on link
crearPrograma()
end note

listarProgramas -[#green]-> LISTANDO_PROGRAMAS
note on link
eliminarPrograma()
end note

listarProgramas -[#green]-> MENU_PRINCIPAL
note on link
mostrarMenu()
end note

@enduml